#N canvas 173 127 1036 589 10;
#X floatatom 140 210 5 0 0 0 - - -, f 5;
#X obj 82 236 unpack;
#X obj 40 420 dac~;
#X text 10 290 FREQ;
#X obj 70 60 import mrpeach;
#X text 210 30 <- UDP \, port 8000;
#X obj 170 110 unpackOSC;
#X obj 50 30 udpreceive 127.0.0.1 8000;
#X floatatom 40 310 8 0 0 0 - - -, f 8;
#X obj 121 150 routeOSC /ocean2osc/aveiro;
#N canvas 0 22 450 300 (subpatch) 0;
#X array F05-signal 882 float 0 black black;
#X coords 0 1 881 -1 200 130 1;
#X restore 750 230 graph;
#N canvas 0 22 450 300 (subpatch) 0;
#X array F05-spectrum 256 float 0 black black;
#X coords 0 0.51 255 -0.008 256 130 1;
#X restore 695 34 graph;
#X text 748 361 ---- 0.02 seconds ----;
#X text 691 167 0;
#X text 730 186 -- partial number --;
#X text 957 154 0;
#X text 1031 80 0.5;
#X floatatom 320 270 0 0 100 0 - - -;
#N canvas 329 22 680 421 pulse-train 0;
#X obj 184 348 line~;
#X obj 39 317 cos~;
#X obj 184 324 pack 0 50;
#X obj 39 245 -~ 0.5;
#X obj 39 269 *~;
#X obj 184 252 / 10;
#X obj 184 276 moses 0;
#X msg 184 300 0;
#X obj 39 293 clip~ -0.5 0.5;
#X obj 184 372 +~ 1;
#X obj 39 341 +~ 1;
#X obj 184 228 inlet;
#X obj 39 389 outlet~;
#X obj 39 365 *~ 0.5;
#X text 53 5 This is a modified version of the pulse train generator
from two examples back.;
#X text 107 140 We have to add 1/2 and wrap so that the center of the
pulse comes at phase zero (previously it was 1/2 cycle out of phase).
This wasn't a problem before but now we have to be in phase with the
oscillator we're multpplying with.;
#X text 276 262 otherwise it's the same as before.;
#X obj 40 85 phasor~;
#X obj 40 58 r freq;
#X connect 0 0 9 0;
#X connect 1 0 10 0;
#X connect 2 0 0 0;
#X connect 3 0 4 0;
#X connect 4 0 8 0;
#X connect 5 0 6 0;
#X connect 6 0 7 0;
#X connect 6 1 2 0;
#X connect 7 0 2 0;
#X connect 8 0 1 0;
#X connect 9 0 4 1;
#X connect 10 0 13 0;
#X connect 11 0 5 0;
#X connect 13 0 12 0;
#X connect 17 0 3 0;
#X connect 18 0 17 0;
#X restore 318 295 pd pulse-train;
#X text 350 270 <-- bandwidth;
#X obj 318 428 *~;
#X text 380 332 <-- modulation frequency as;
#X text 419 346 multiple of fundamental;
#X obj 400 490 output~;
#X obj 317 455 hip~;
#N canvas 122 211 563 534 fft 0;
#X obj 19 61 inlet~;
#X obj 208 212 inlet;
#X obj 29 92 rfft~;
#X obj 29 125 *~;
#X obj 60 125 *~;
#X obj 29 155 sqrt~;
#X obj 332 109 block~ 4096 1;
#X obj 29 181 biquad~ 0 0 0 0 1;
#X text 93 93 Fourier series;
#X text 98 146 magnitude;
#X text 96 131 calculate;
#X text 21 3 This subpatch computes the spectrum of the incoming signal
with a (rectangular windowed) FFT. FFTs aren't properly introduced
until much later.;
#X text 83 61 signal to analyze;
#X text 193 164 delay two samples;
#X text 191 182 for better graphing;
#X obj 264 434 samplerate~;
#X obj 245 262 metro 500;
#X obj 245 233 inlet;
#X text 298 231 toggle to graph repeatedly;
#X text 262 212 bang to graph once;
#X obj 29 205 /~ 4096;
#X obj 264 409 bang~;
#X obj 264 483 s freq;
#X obj 264 457 / 256;
#X obj 19 295 tabwrite~ F05-signal;
#X obj 245 294 tabwrite~ F05-spectrum;
#X msg 224 321 \; pd dsp 1;
#X connect 0 0 2 0;
#X connect 0 0 24 0;
#X connect 1 0 24 0;
#X connect 1 0 25 0;
#X connect 1 0 26 0;
#X connect 2 0 3 0;
#X connect 2 0 3 1;
#X connect 2 1 4 0;
#X connect 2 1 4 1;
#X connect 3 0 5 0;
#X connect 4 0 5 0;
#X connect 5 0 7 0;
#X connect 7 0 20 0;
#X connect 15 0 23 0;
#X connect 16 0 24 0;
#X connect 16 0 25 0;
#X connect 17 0 16 0;
#X connect 17 0 26 0;
#X connect 20 0 25 0;
#X connect 21 0 15 0;
#X connect 23 0 22 0;
#X restore 365 454 pd fft;
#X obj 425 433 bng 18 250 50 0 empty empty empty 0 -6 0 8 #fcfcfc #000000
#000000;
#X obj 425 454 tgl 18 0 empty empty empty 0 -6 0 8 #fcfcfc #000000
#000000 1 1;
#X text 446 453 <-- repeatedly;
#X text 447 433 <-- graph once;
#X text 723 167 2;
#X text 755 167 4;
#X text 787 167 6;
#X text 819 167 8;
#X text 852 167 10;
#X text 884 167 12;
#X text 915 167 14;
#X text 955 225 1;
#X text 955 349 -1;
#X text 389 394 modulating oscillator;
#X text 341 239 RING MODULATED PULSE TRAINS;
#X floatatom 340 332 0 0 100 0 - - -;
#X obj 340 391 osc~;
#X obj 340 366 *;
#X obj 374 366 r freq;
#X text 451 294 <-- pulse train;
#X text 487 310 generator from before;
#X obj 47 335 osc~;
#X obj 120 180 routeOSC /temperature /light;
#X floatatom 170 360 5 0 0 0 - - -, f 5;
#X obj 150 310 maxlib/scale 2800 4095 0 100 0;
#X obj 80 270 maxlib/scale 21 30 200 0 0;
#X connect 1 0 51 0;
#X connect 6 0 9 0;
#X connect 7 0 6 0;
#X connect 8 0 47 0;
#X connect 9 0 48 0;
#X connect 17 0 18 0;
#X connect 18 0 20 0;
#X connect 20 0 24 0;
#X connect 20 0 25 0;
#X connect 24 0 23 0;
#X connect 24 0 23 1;
#X connect 26 0 25 1;
#X connect 27 0 25 2;
#X connect 41 0 43 0;
#X connect 42 0 20 1;
#X connect 43 0 42 0;
#X connect 44 0 43 1;
#X connect 47 0 2 0;
#X connect 47 0 2 1;
#X connect 48 0 1 0;
#X connect 48 0 0 0;
#X connect 48 1 50 0;
#X connect 50 0 49 0;
#X connect 50 0 8 0;
#X connect 51 0 17 0;
